<?xml version="1.0" encoding="utf-8"?>
<!-- Generator: Adobe Illustrator 23.0.1, SVG Export Plug-In . SVG Version: 6.00 Build 0)  -->
<svg version="1.1" id="Calque_1" xmlns="http://www.w3.org/2000/svg" xmlns:xlink="http://www.w3.org/1999/xlink" x="0px" y="0px"
	 viewBox="0 0 32 32" style="enable-background:new 0 0 32 32;" xml:space="preserve">
<style type="text/css">
	.st0{fill:#FFFFFF;}
	.st1{fill:#333333;}
</style>
<title>behance</title>
<path class="st0" d="M19.5,11.2c0-0.6,0-1.2,0-1.7c2,0,4,0,6,0c0,0.6,0,1.2,0,1.7C23.5,11.2,21.5,11.2,19.5,11.2z"/>
<path class="st1" d="M7.6,20.5c0-1.3,0-2.6,0-3.9c0.1,0,0.2,0,0.3,0c1.2,0,2.4,0,3.6,0c1.1,0,1.7,0.6,1.8,1.7c0,0.5,0,1-0.2,1.4
	c-0.3,0.5-0.7,0.8-1.3,0.8c-1.1,0-2.3,0-3.4,0C8.2,20.5,7.9,20.5,7.6,20.5z"/>
<g>
	<g>
		<path class="st1" d="M16,32C7.2,32,0,24.8,0,16C0,7.2,7.2,0,16,0c8.8,0,16,7.2,16,16C32,24.8,24.8,32,16,32z M4.3,23.1
			c0.1,0,0.2,0,0.3,0c2.4,0,4.7,0,7.1,0c0.7,0,1.3-0.1,1.9-0.3c1.2-0.4,2.1-1.1,2.5-2.3c0.4-1.3,0.4-2.6-0.2-3.9
			c-0.3-0.7-0.9-1.2-1.7-1.3c-0.1,0-0.2,0-0.4-0.1c0.1-0.1,0.3-0.1,0.4-0.2c0.6-0.2,1.1-0.7,1.4-1.3c0.2-0.6,0.3-1.2,0.2-1.7
			c-0.1-1.3-0.7-2.4-2-3c-0.7-0.4-1.5-0.4-2.3-0.4c-2.4,0-4.7,0-7.1,0c-0.1,0-0.2,0-0.3,0C4.3,13.4,4.3,18.3,4.3,23.1z M20.2,18.6
			c0.1,0,0.2,0,0.3,0c2.3,0,4.6,0,6.9,0c0.2,0,0.3,0,0.3-0.3c0-1,0-1.9-0.3-2.8c-0.5-1.4-1.3-2.4-2.7-2.9c-1.1-0.4-2.3-0.4-3.5-0.2
			c-1.4,0.3-2.6,1.1-3.3,2.4c-0.9,1.6-1.1,3.3-0.6,5.1c0.5,1.6,1.5,2.7,3.2,3.2c1.5,0.5,3,0.4,4.5-0.1c1-0.3,1.9-1,2.3-2
			c0.2-0.5,0.3-1,0.3-1.5c-0.8,0-1.6,0-2.4,0c0,0-0.1,0-0.1,0c-0.1,0.9-0.7,1.3-1.5,1.4c-0.5,0.1-1,0.1-1.5,0
			C20.8,20.9,20.1,19.9,20.2,18.6z M19.5,11.2c2,0,4,0,6,0c0-0.6,0-1.2,0-1.7c-2,0-4,0-6,0C19.5,10.1,19.5,10.6,19.5,11.2z"/>
	</g>
	<path class="st0" d="M4.3,23.1c0-4.9,0-9.7,0-14.5c0.1,0,0.2,0,0.3,0c2.4,0,4.7,0,7.1,0c0.8,0,1.6,0.1,2.3,0.4c1.2,0.6,1.8,1.7,2,3
		c0.1,0.6,0,1.2-0.2,1.7c-0.3,0.6-0.7,1-1.4,1.3c-0.1,0-0.2,0.1-0.4,0.2c0.1,0,0.2,0,0.4,0.1c0.8,0.2,1.4,0.6,1.7,1.3
		c0.6,1.3,0.6,2.6,0.2,3.9c-0.4,1.2-1.3,1.9-2.5,2.3c-0.6,0.2-1.3,0.3-1.9,0.3c-2.4,0-4.7,0-7.1,0C4.5,23.1,4.4,23.1,4.3,23.1z
		 M7.6,20.5c0.3,0,0.5,0,0.8,0c1.1,0,2.3,0,3.4,0c0.6,0,1-0.3,1.3-0.8c0.2-0.4,0.3-0.9,0.2-1.4c-0.1-1.1-0.7-1.7-1.8-1.7
		c-1.2,0-2.4,0-3.6,0c-0.1,0-0.2,0-0.3,0C7.6,17.9,7.6,19.2,7.6,20.5z M7.6,11.2c0,0.1,0,0.1,0,0.1c0,1,0,1.9,0,2.9
		c0,0.2,0.1,0.2,0.2,0.2c0.8,0,1.7,0,2.5,0c0.5,0,1,0,1.4,0c0.4,0,0.7-0.3,0.9-0.7c0.2-0.6,0.2-1.2,0-1.8c-0.2-0.5-0.5-0.8-1-0.8
		c-0.7,0-1.4,0-2.2,0C8.9,11.2,8.3,11.2,7.6,11.2z"/>
	<path class="st0" d="M20.2,18.6c-0.1,1.3,0.7,2.3,1.9,2.5c0.5,0.1,1,0,1.5,0c0.8-0.1,1.4-0.6,1.5-1.4c0,0,0.1,0,0.1,0
		c0.8,0,1.6,0,2.4,0c0,0.5-0.1,1-0.3,1.5c-0.4,1.1-1.2,1.7-2.3,2c-1.5,0.5-3,0.5-4.5,0.1c-1.6-0.5-2.7-1.6-3.2-3.2
		c-0.5-1.8-0.3-3.5,0.6-5.1c0.7-1.3,1.8-2.1,3.3-2.4c1.2-0.2,2.3-0.2,3.5,0.2c1.4,0.5,2.3,1.5,2.7,2.9c0.3,0.9,0.4,1.8,0.3,2.8
		c0,0.2-0.1,0.3-0.3,0.3c-2.3,0-4.6,0-6.9,0C20.4,18.6,20.3,18.6,20.2,18.6z M24.9,16.6c0.1-0.9-0.6-1.9-1.4-2.1
		c-0.5-0.1-0.9-0.1-1.4,0c-0.9,0.2-1.8,1.2-1.8,2.1C21.7,16.6,23.3,16.6,24.9,16.6z"/>
	<path class="st1" d="M7.6,11.2c0.7,0,1.3,0,1.9,0c0.7,0,1.4,0,2.2,0c0.5,0,0.9,0.3,1,0.8c0.2,0.6,0.2,1.2,0,1.8
		c-0.1,0.4-0.4,0.7-0.9,0.7c-0.5,0-1,0-1.4,0c-0.8,0-1.7,0-2.5,0c-0.1,0-0.3,0-0.2-0.2c0-1,0-1.9,0-2.9C7.6,11.3,7.6,11.2,7.6,11.2z
		"/>
	<path class="st1" d="M24.9,16.6c-1.6,0-3.1,0-4.7,0c0-0.9,0.9-1.9,1.8-2.1c0.5-0.1,1-0.1,1.4,0C24.3,14.7,24.9,15.7,24.9,16.6z"/>
</g>
</svg>
